<svg xmlns="http://www.w3.org/2000/svg" xmlns:xlink="http://www.w3.org/1999/xlink" width="48" height="48" version="1.1" viewBox="0 0 48 48"><title>DA5233C5-2D62-4F68-BA82-3C6D1A3A80EC</title><desc>Created with sketchtool.</desc><defs><rect id="path-1" width="600" height="956" x="0" y="0"/></defs><g id="Page-1" fill="none" fill-rule="evenodd" stroke="none" stroke-width="1"><g id="Asset-Sheet" transform="translate(-434.000000, -790.000000)"><g id="math_keypad_icon_log_e" transform="translate(434.000000, 790.000000)"><g id="icon"><rect id="bounds" width="48" height="48" x="0" y="0" fill="#F08" fill-opacity="0"/><path id="ln" fill="#3B3E40" d="M20.836,29 L20.836,19.662 L19.058,19.662 L19.058,29 L20.836,29 Z M28.942,29 L28.942,24.226 C28.942,22.91 28.228,22.07 26.744,22.07 C25.638,22.07 24.812,22.602 24.378,23.12 L24.378,22.238 L22.6,22.238 L22.6,29 L24.378,29 L24.378,24.45 C24.672,24.044 25.218,23.652 25.918,23.652 C26.674,23.652 27.164,23.974 27.164,24.912 L27.164,29 L28.942,29 Z"/></g></g></g><g id="Math-Input" transform="translate(-634.000000, -1886.000000)"><g id="Asset-Sheet" transform="translate(200.000000, 1096.000000)"><mask id="mask-2" fill="#fff"><use xlink:href="#path-1"/></mask><use id="Mask" fill="#FAFAFA" xlink:href="#path-1"/><g id="math_keypad_icon_log_e" mask="url(#mask-2)"><g id="icon"><g transform="translate(434.000000, 790.000000)"><rect id="bounds" width="48" height="48" x="0" y="0" fill="#F08" fill-opacity="0"/><path id="ln" fill="#3B3E40" d="M20.836,29 L20.836,19.662 L19.058,19.662 L19.058,29 L20.836,29 Z M28.942,29 L28.942,24.226 C28.942,22.91 28.228,22.07 26.744,22.07 C25.638,22.07 24.812,22.602 24.378,23.12 L24.378,22.238 L22.6,22.238 L22.6,29 L24.378,29 L24.378,24.45 C24.672,24.044 25.218,23.652 25.918,23.652 C26.674,23.652 27.164,23.974 27.164,24.912 L27.164,29 L28.942,29 Z"/></g></g></g></g></g></g></svg>