<svg xmlns="http://www.w3.org/2000/svg" xmlns:xlink="http://www.w3.org/1999/xlink" width="48" height="48" version="1.1" viewBox="0 0 48 48"><title>3F999819-EE39-46D0-88A6-BA2D88427CD4</title><desc>Created with sketchtool.</desc><defs><rect id="path-1" width="600" height="956" x="0" y="0"/></defs><g id="Page-1" fill="none" fill-rule="evenodd" stroke="none" stroke-width="1"><g id="Asset-Sheet" transform="translate(-502.000000, -722.000000)"><g id="math_keypad_icon_radical" transform="translate(502.000000, 722.000000)"><g id="icon"><rect id="bounds" width="48" height="48" x="0" y="0" fill="#F08" fill-opacity="0"/><path id="block" fill="#3B3E40" d="M13,16.9970301 C13,16.4463856 13.4530363,16 13.9970301,16 L20.0029699,16 C20.5536144,16 21,16.4530363 21,16.9970301 L21,23.0029699 C21,23.5536144 20.5469637,24 20.0029699,24 L13.9970301,24 C13.4463856,24 13,23.5469637 13,23.0029699 L13,16.9970301 Z M15,18 L19,18 L19,22 L15,22 L15,18 Z"/><polyline id="root" stroke="#3B3E40" stroke-linecap="round" stroke-linejoin="round" stroke-width="2" points="14 29 18 35 27 21 34 21"/></g></g></g><g id="Math-Input" transform="translate(-702.000000, -1818.000000)"><g id="Asset-Sheet" transform="translate(200.000000, 1096.000000)"><mask id="mask-2" fill="#fff"><use xlink:href="#path-1"/></mask><use id="Mask" fill="#FAFAFA" xlink:href="#path-1"/><g id="math_keypad_icon_radical" mask="url(#mask-2)"><g id="icon"><g transform="translate(502.000000, 722.000000)"><rect id="bounds" width="48" height="48" x="0" y="0" fill="#F08" fill-opacity="0"/><path id="block" fill="#3B3E40" d="M13,16.9970301 C13,16.4463856 13.4530363,16 13.9970301,16 L20.0029699,16 C20.5536144,16 21,16.4530363 21,16.9970301 L21,23.0029699 C21,23.5536144 20.5469637,24 20.0029699,24 L13.9970301,24 C13.4463856,24 13,23.5469637 13,23.0029699 L13,16.9970301 Z M15,18 L19,18 L19,22 L15,22 L15,18 Z"/><polyline id="root" stroke="#3B3E40" stroke-linecap="round" stroke-linejoin="round" stroke-width="2" points="14 29 18 35 27 21 34 21"/></g></g></g></g></g></g></svg>