<svg xmlns="http://www.w3.org/2000/svg" xmlns:xlink="http://www.w3.org/1999/xlink" width="48" height="48" version="1.1" viewBox="0 0 48 48"><title>0B0ADEAF-9AC6-4BA2-900B-0A4D7E2772CF</title><desc>Created with sketchtool.</desc><defs><rect id="path-1" width="600" height="956" x="0" y="0"/></defs><g id="Page-1" fill="none" fill-rule="evenodd" stroke="none" stroke-width="1"><g id="Asset-Sheet" transform="translate(-434.000000, -216.000000)"><g id="math_keypad_icon_8" transform="translate(434.000000, 216.000000)"><rect id="bounds" width="48" height="48" x="0" y="0" fill="#F08" fill-opacity="0"/><path id="8" fill="#3B3E40" d="M24.0125,32.3 C27.2875,32.3 29.9875,30.6 29.9875,27.775 C29.9875,25.55 28.0875,24.025 26.0125,23.4 C27.9375,22.85 29.7375,21.6 29.7375,19.4 C29.7375,16.4 26.7625,15.075 24.0125,15.075 C21.2375,15.075 18.3125,16.4 18.3125,19.4 C18.3125,21.6 20.0875,22.85 22.0125,23.4 C19.9375,24.025 18.0375,25.55 18.0375,27.775 C18.0375,30.625 20.7125,32.3 24.0125,32.3 L24.0125,32.3 Z M24.0125,22.55 C23.0125,22.375 20.3875,21.7 20.3875,19.675 C20.3875,17.95 21.9875,16.925 24.0125,16.925 C26.0125,16.925 27.6375,17.95 27.6375,19.675 C27.6375,21.7 25.0375,22.375 24.0125,22.55 L24.0125,22.55 Z M24.0125,30.45 C21.9375,30.45 20.1125,29.35 20.1125,27.55 C20.1125,25.375 22.9875,24.45 24.0125,24.325 C25.0375,24.45 27.8875,25.375 27.8875,27.55 C27.8875,29.35 26.0625,30.45 24.0125,30.45 L24.0125,30.45 Z"/></g></g><g id="Math-Input" transform="translate(-634.000000, -1312.000000)"><g id="Asset-Sheet" transform="translate(200.000000, 1096.000000)"><mask id="mask-2" fill="#fff"><use xlink:href="#path-1"/></mask><use id="Mask" fill="#FAFAFA" xlink:href="#path-1"/><g id="math_keypad_icon_8" mask="url(#mask-2)"><g transform="translate(434.000000, 216.000000)"><rect id="bounds" width="48" height="48" x="0" y="0" fill="#F08" fill-opacity="0"/><path id="8" fill="#3B3E40" d="M24.0125,32.3 C27.2875,32.3 29.9875,30.6 29.9875,27.775 C29.9875,25.55 28.0875,24.025 26.0125,23.4 C27.9375,22.85 29.7375,21.6 29.7375,19.4 C29.7375,16.4 26.7625,15.075 24.0125,15.075 C21.2375,15.075 18.3125,16.4 18.3125,19.4 C18.3125,21.6 20.0875,22.85 22.0125,23.4 C19.9375,24.025 18.0375,25.55 18.0375,27.775 C18.0375,30.625 20.7125,32.3 24.0125,32.3 L24.0125,32.3 Z M24.0125,22.55 C23.0125,22.375 20.3875,21.7 20.3875,19.675 C20.3875,17.95 21.9875,16.925 24.0125,16.925 C26.0125,16.925 27.6375,17.95 27.6375,19.675 C27.6375,21.7 25.0375,22.375 24.0125,22.55 L24.0125,22.55 Z M24.0125,30.45 C21.9375,30.45 20.1125,29.35 20.1125,27.55 C20.1125,25.375 22.9875,24.45 24.0125,24.325 C25.0375,24.45 27.8875,25.375 27.8875,27.55 C27.8875,29.35 26.0625,30.45 24.0125,30.45 L24.0125,30.45 Z"/></g></g></g></g></g></svg>