<svg xmlns="http://www.w3.org/2000/svg" xmlns:xlink="http://www.w3.org/1999/xlink" width="48" height="48" version="1.1" viewBox="0 0 48 48"><title>2C811803-3C40-44C1-83D9-B5D3C400FE21</title><desc>Created with sketchtool.</desc><defs><rect id="path-1" width="600" height="956" x="0" y="0"/></defs><g id="Page-1" fill="none" fill-rule="evenodd" stroke="none" stroke-width="1"><g id="Asset-Sheet" transform="translate(-118.000000, -148.000000)"><g id="math_keypad_icon_jump_out_parentheses" transform="translate(118.000000, 148.000000)"><rect id="bounds" width="48" height="48" x="0" y="0" fill="#F08" fill-opacity="0"/><g id="icon" stroke-width="1" transform="translate(12.000000, 12.000000)"><rect id="bounds" width="24" height="24" x="0" y="0" fill="#F08" fill-opacity="0"/><path id="arc" stroke="#888D93" stroke-linecap="round" stroke-linejoin="round" stroke-width="2" d="M14.25,6 C11.25,9 11.2499999,15 14.25,18" transform="translate(13.125000, 12.000000) scale(-1, 1) translate(-13.125000, -12.000000)"/><path id="arc" stroke="#888D93" stroke-linecap="round" stroke-linejoin="round" stroke-width="2" d="M6,6 C2.99999998,9 2.99999999,15 6,18"/><polyline id="head" stroke="#78C008" stroke-linecap="round" stroke-linejoin="round" stroke-width="2" points="20 15 23 12 20 9"/><path id="tail" stroke="#78C008" stroke-linecap="round" stroke-linejoin="round" stroke-width="2" d="M10,12 L22,12"/></g></g></g><g id="Math-Input" transform="translate(-318.000000, -1244.000000)"><g id="Asset-Sheet" transform="translate(200.000000, 1096.000000)"><mask id="mask-2" fill="#fff"><use xlink:href="#path-1"/></mask><use id="Mask" fill="#FAFAFA" xlink:href="#path-1"/><g id="math_keypad_icon_jump_out_parentheses" mask="url(#mask-2)"><g transform="translate(118.000000, 148.000000)"><rect id="bounds" width="48" height="48" x="0" y="0" fill="#F08" fill-opacity="0"/><g id="icon" fill="none" stroke-width="1" transform="translate(12.000000, 12.000000)"><rect id="bounds" width="24" height="24" x="0" y="0" fill="#F08" fill-opacity="0"/><path id="arc" stroke="#888D93" stroke-linecap="round" stroke-linejoin="round" stroke-width="2" d="M14.25,6 C11.25,9 11.2499999,15 14.25,18" transform="translate(13.125000, 12.000000) scale(-1, 1) translate(-13.125000, -12.000000)"/><path id="arc" stroke="#888D93" stroke-linecap="round" stroke-linejoin="round" stroke-width="2" d="M6,6 C2.99999998,9 2.99999999,15 6,18"/><polyline id="head" stroke="#78C008" stroke-linecap="round" stroke-linejoin="round" stroke-width="2" points="20 15 23 12 20 9"/><path id="tail" stroke="#78C008" stroke-linecap="round" stroke-linejoin="round" stroke-width="2" d="M10,12 L22,12"/></g></g></g></g></g></g></svg>