<svg xmlns="http://www.w3.org/2000/svg" xmlns:xlink="http://www.w3.org/1999/xlink" width="48" height="48" version="1.1" viewBox="0 0 48 48"><title>9C26E1FC-80B7-4006-985A-505DDFE1A96B</title><desc>Created with sketchtool.</desc><defs><rect id="path-1" width="600" height="956" x="0" y="0"/></defs><g id="Page-1" fill="none" fill-rule="evenodd" stroke="none" stroke-width="1"><g id="Asset-Sheet" transform="translate(-434.000000, -352.000000)"><g id="math_keypad_icon_2" transform="translate(434.000000, 352.000000)"><rect id="bounds" width="48" height="48" x="0" y="0" fill="#F08" fill-opacity="0"/><path id="2" fill="#3B3E40" d="M29.45,32 L29.45,30.15 L21.275,30.15 C25.925,26.475 29.375,23.375 29.375,19.975 C29.375,16.65 26.55,15.075 23.775,15.075 C21.425,15.075 19.25,16.025 17.975,17.7 L19.25,19.025 C20.225,17.775 21.775,16.925 23.775,16.925 C25.5,16.925 27.25,17.85 27.25,19.975 C27.25,22.85 24,25.625 18,30.35 L18,32 L29.45,32 Z"/></g></g><g id="Math-Input" transform="translate(-634.000000, -1448.000000)"><g id="Asset-Sheet" transform="translate(200.000000, 1096.000000)"><mask id="mask-2" fill="#fff"><use xlink:href="#path-1"/></mask><use id="Mask" fill="#FAFAFA" xlink:href="#path-1"/><g id="math_keypad_icon_2" mask="url(#mask-2)"><g transform="translate(434.000000, 352.000000)"><rect id="bounds" width="48" height="48" x="0" y="0" fill="#F08" fill-opacity="0"/><path id="2" fill="#3B3E40" d="M29.45,32 L29.45,30.15 L21.275,30.15 C25.925,26.475 29.375,23.375 29.375,19.975 C29.375,16.65 26.55,15.075 23.775,15.075 C21.425,15.075 19.25,16.025 17.975,17.7 L19.25,19.025 C20.225,17.775 21.775,16.925 23.775,16.925 C25.5,16.925 27.25,17.85 27.25,19.975 C27.25,22.85 24,25.625 18,30.35 L18,32 L29.45,32 Z"/></g></g></g></g></g></svg>