<svg xmlns="http://www.w3.org/2000/svg" xmlns:xlink="http://www.w3.org/1999/xlink" width="48" height="48" version="1.1" viewBox="0 0 48 48"><title>85085DC7-671F-4610-9D7F-42A14A945AD5</title><desc>Created with sketchtool.</desc><defs><rect id="path-1" width="600" height="956" x="0" y="0"/></defs><g id="Page-1" fill="none" fill-rule="evenodd" stroke="none" stroke-width="1"><g id="Asset-Sheet" transform="translate(-366.000000, -284.000000)"><g id="math_keypad_icon_4" transform="translate(366.000000, 284.000000)"><rect id="bounds" width="48" height="48" x="0" y="0" fill="#F08" fill-opacity="0"/><path id="4" fill="#3B3E40" d="M27.825,32 L27.825,27.775 L30.175,27.775 L30.175,25.95 L27.825,25.95 L27.825,15.325 L24.975,15.325 L17.825,26.05 L17.825,27.775 L25.75,27.775 L25.75,32 L27.825,32 Z M25.75,25.95 L19.9,25.95 L25.75,17.25 L25.75,25.95 Z"/></g></g><g id="Math-Input" transform="translate(-566.000000, -1380.000000)"><g id="Asset-Sheet" transform="translate(200.000000, 1096.000000)"><mask id="mask-2" fill="#fff"><use xlink:href="#path-1"/></mask><use id="Mask" fill="#FAFAFA" xlink:href="#path-1"/><g id="math_keypad_icon_4" mask="url(#mask-2)"><g transform="translate(366.000000, 284.000000)"><rect id="bounds" width="48" height="48" x="0" y="0" fill="#F08" fill-opacity="0"/><path id="4" fill="#3B3E40" d="M27.825,32 L27.825,27.775 L30.175,27.775 L30.175,25.95 L27.825,25.95 L27.825,15.325 L24.975,15.325 L17.825,26.05 L17.825,27.775 L25.75,27.775 L25.75,32 L27.825,32 Z M25.75,25.95 L19.9,25.95 L25.75,17.25 L25.75,25.95 Z"/></g></g></g></g></g></svg>