<svg xmlns="http://www.w3.org/2000/svg" xmlns:xlink="http://www.w3.org/1999/xlink" width="48" height="48" version="1.1" viewBox="0 0 48 48"><title>64B30C56-8FCE-4ECE-BD13-525F6207F288</title><desc>Created with sketchtool.</desc><defs><rect id="path-1" width="600" height="956" x="0" y="0"/></defs><g id="Page-1" fill="none" fill-rule="evenodd" stroke="none" stroke-width="1"><g id="Asset-Sheet" transform="translate(-434.000000, -420.000000)"><g id="math_keypad_icon_0" transform="translate(434.000000, 420.000000)"><rect id="bounds" width="48" height="48" x="0" y="0" fill="#F08" fill-opacity="0"/><path id="0" fill="#3B3E40" d="M24,32.3 C28.55,32.3 30.375,27.725 30.375,23.675 C30.375,19.6 28.55,15.075 24,15.075 C19.425,15.075 17.625,19.6 17.625,23.675 C17.625,27.725 19.425,32.3 24,32.3 L24,32.3 Z M24,30.45 C20.825,30.45 19.75,27 19.75,23.675 C19.75,20.35 20.825,16.925 24,16.925 C27.175,16.925 28.25,20.35 28.25,23.675 C28.25,27 27.175,30.45 24,30.45 L24,30.45 Z"/></g></g><g id="Math-Input" transform="translate(-634.000000, -1516.000000)"><g id="Asset-Sheet" transform="translate(200.000000, 1096.000000)"><mask id="mask-2" fill="#fff"><use xlink:href="#path-1"/></mask><use id="Mask" fill="#FAFAFA" xlink:href="#path-1"/><g id="math_keypad_icon_0" mask="url(#mask-2)"><g transform="translate(434.000000, 420.000000)"><rect id="bounds" width="48" height="48" x="0" y="0" fill="#F08" fill-opacity="0"/><path id="0" fill="#3B3E40" d="M24,32.3 C28.55,32.3 30.375,27.725 30.375,23.675 C30.375,19.6 28.55,15.075 24,15.075 C19.425,15.075 17.625,19.6 17.625,23.675 C17.625,27.725 19.425,32.3 24,32.3 L24,32.3 Z M24,30.45 C20.825,30.45 19.75,27 19.75,23.675 C19.75,20.35 20.825,16.925 24,16.925 C27.175,16.925 28.25,20.35 28.25,23.675 C28.25,27 27.175,30.45 24,30.45 L24,30.45 Z"/></g></g></g></g></g></svg>