<svg xmlns="http://www.w3.org/2000/svg" xmlns:xlink="http://www.w3.org/1999/xlink" width="48" height="48" version="1.1" viewBox="0 0 48 48"><title>0EC04619-4DC0-4CEC-B6F8-614C80606D37</title><desc>Created with sketchtool.</desc><defs><rect id="path-1" width="600" height="956" x="0" y="0"/></defs><g id="Page-1" fill="none" fill-rule="evenodd" stroke="none" stroke-width="1"><g id="Asset-Sheet" transform="translate(-50.000000, -518.000000)"><g id="math_keypad_icon_multiplication_cross" transform="translate(50.000000, 518.000000)"><rect id="bounds" width="48" height="48" x="0" y="0" fill="#F08" fill-opacity="0"/><g id="icon" stroke-width="1" transform="translate(12.000000, 12.000000)"><rect id="bounds" width="24" height="24" x="0" y="0" fill="#F08" fill-opacity="0"/><path id="line" stroke="#3B3E40" stroke-linecap="round" stroke-linejoin="round" stroke-width="2" d="M8,8 L16,16"/><path id="line" stroke="#3B3E40" stroke-linecap="round" stroke-linejoin="round" stroke-width="2" d="M8,8 L16,16" transform="translate(12.000000, 12.000000) scale(-1, 1) translate(-12.000000, -12.000000)"/></g></g></g><g id="Math-Input" transform="translate(-250.000000, -1614.000000)"><g id="Asset-Sheet" transform="translate(200.000000, 1096.000000)"><mask id="mask-2" fill="#fff"><use xlink:href="#path-1"/></mask><use id="Mask" fill="#FAFAFA" xlink:href="#path-1"/><g id="math_keypad_icon_multiplication_cross" mask="url(#mask-2)"><g transform="translate(50.000000, 518.000000)"><rect id="bounds" width="48" height="48" x="0" y="0" fill="#F08" fill-opacity="0"/><g id="icon" fill="none" stroke-width="1" transform="translate(12.000000, 12.000000)"><rect id="bounds" width="24" height="24" x="0" y="0" fill="#F08" fill-opacity="0"/><path id="line" stroke="#3B3E40" stroke-linecap="round" stroke-linejoin="round" stroke-width="2" d="M8,8 L16,16"/><path id="line" stroke="#3B3E40" stroke-linecap="round" stroke-linejoin="round" stroke-width="2" d="M8,8 L16,16" transform="translate(12.000000, 12.000000) scale(-1, 1) translate(-12.000000, -12.000000)"/></g></g></g></g></g></g></svg>