<svg xmlns="http://www.w3.org/2000/svg" xmlns:xlink="http://www.w3.org/1999/xlink" width="48" height="48" version="1.1" viewBox="0 0 48 48"><title>3A759AA6-4910-4134-845C-78D4C5460A8B</title><desc>Created with sketchtool.</desc><defs><rect id="path-1" width="600" height="956" x="0" y="0"/></defs><g id="Page-1" fill="none" fill-rule="evenodd" stroke="none" stroke-width="1"><g id="Asset-Sheet" transform="translate(-50.000000, -216.000000)"><g id="math_keypad_icon_jump_out_base" transform="translate(50.000000, 216.000000)"><rect id="bounds" width="48" height="48" x="0" y="0" fill="#F08" fill-opacity="0"/><g id="icon" stroke-width="1" transform="translate(12.000000, 12.000000)"><rect id="bounds" width="24" height="24" x="0" y="0" fill="#F08" fill-opacity="0"/><path id="block" fill="#888D93" d="M0,16.9970301 C0,16.4463856 0.453036308,16 0.997030139,16 L7.00296986,16 C7.5536144,16 8,16.4530363 8,16.9970301 L8,23.0029699 C8,23.5536144 7.54696369,24 7.00296986,24 L0.997030139,24 C0.446385598,24 0,23.5469637 0,23.0029699 L0,16.9970301 Z M2,18 L6,18 L6,22 L2,22 L2,18 Z"/><path id="caret" stroke="#78C008" stroke-linecap="round" stroke-linejoin="round" stroke-width="2" d="M23,1 L23,17"/><path id="tail" stroke="#78C008" stroke-linecap="round" stroke-linejoin="round" stroke-width="2" d="M11,17 L19,9"/><polyline id="head" stroke="#78C008" stroke-linecap="round" stroke-linejoin="round" stroke-width="2" points="15 9 19 9 19 13"/></g></g></g><g id="Math-Input" transform="translate(-250.000000, -1312.000000)"><g id="Asset-Sheet" transform="translate(200.000000, 1096.000000)"><mask id="mask-2" fill="#fff"><use xlink:href="#path-1"/></mask><use id="Mask" fill="#FAFAFA" xlink:href="#path-1"/><g id="math_keypad_icon_jump_out_base" mask="url(#mask-2)"><g transform="translate(50.000000, 216.000000)"><rect id="bounds" width="48" height="48" x="0" y="0" fill="#F08" fill-opacity="0"/><g id="icon" fill="none" stroke-width="1" transform="translate(12.000000, 12.000000)"><rect id="bounds" width="24" height="24" x="0" y="0" fill="#F08" fill-opacity="0"/><path id="block" fill="#888D93" d="M0,16.9970301 C0,16.4463856 0.453036308,16 0.997030139,16 L7.00296986,16 C7.5536144,16 8,16.4530363 8,16.9970301 L8,23.0029699 C8,23.5536144 7.54696369,24 7.00296986,24 L0.997030139,24 C0.446385598,24 0,23.5469637 0,23.0029699 L0,16.9970301 Z M2,18 L6,18 L6,22 L2,22 L2,18 Z"/><path id="caret" stroke="#78C008" stroke-linecap="round" stroke-linejoin="round" stroke-width="2" d="M23,1 L23,17"/><path id="tail" stroke="#78C008" stroke-linecap="round" stroke-linejoin="round" stroke-width="2" d="M11,17 L19,9"/><polyline id="head" stroke="#78C008" stroke-linecap="round" stroke-linejoin="round" stroke-width="2" points="15 9 19 9 19 13"/></g></g></g></g></g></g></svg>